<?xml version="1.0" encoding="utf-8"?>
<!-- Generator: Adobe Illustrator 24.1.3, SVG Export Plug-In . SVG Version: 6.00 Build 0)  -->
<svg version="1.1" id="Layer_1" xmlns="http://www.w3.org/2000/svg" xmlns:xlink="http://www.w3.org/1999/xlink" x="0px" y="0px"
	 viewBox="0 0 1500 1500" style="enable-background:new 0 0 1500 1500;" xml:space="preserve">
<g id="Guides">
</g>
<g>
	<polygon points="963.47,1104.39 1072.02,1104.39 1072.02,1075.67 934.42,1075.67 934.42,1304.75 1072.36,1304.75 1072.36,1276.03 
		963.47,1276.03 	"/>
	<rect x="989.68" y="1175.52" width="79.99" height="29.05"/>
	<polygon points="1299.95,1075.34 1299.95,1246.17 1181.78,1075.32 1159.56,1075.04 1159.56,1304.75 1188.28,1304.75 
		1188.28,1135.25 1305.43,1304.75 1328.32,1304.75 1328.32,1075.34 	"/>
	<path d="M787.35,1216.67c35.55-6.22,58.52-33.37,58.52-69.17c0-34.75-23.1-72.15-73.83-72.15h-82.87v229.41h28.38V1104.4h54.5
		c29.62,0,45.11,21.68,45.11,43.1c0,20.92-14.12,43.44-45.11,43.44h-36.97v12.59l84.08,101.22h37.19l-73.37-87.31L787.35,1216.67z"
		/>
	<path d="M257.78,1175.17c-23.86-2.22-53.65-5-55.51-31.85c-0.76-9.16,1.39-17.31,6.23-23.53c8.81-11.33,25.46-18.34,44.52-18.75
		c20.86-0.34,43.97,8.75,49.94,29.74l28.55-1.14c-7.42-41.74-45.69-56.64-76.76-56.64c-28.23,0-54.67,11.56-69,30.16
		c-9.28,12.06-13.5,26.74-12.24,42.47h0.03c3.51,46.61,43.55,54.53,80.79,58.29c21.95,2.19,49.27,4.93,53.84,25.1
		c0.71,3.19,1.07,6.08,1.07,8.61c0,25.51-28.05,40.76-55.17,40.76c-23.48,0-49.7-11.98-52.98-34.23l-0.17,0.01l-0.17-2.59
		l-29.08,0.57l0.2,3.72c4.11,39.51,45.25,60.9,81.87,60.9c41.56,0,84.55-25.74,84.55-68.8c0-4.33-0.59-9.76-1.62-14.92
		C328.34,1188.52,292.12,1179.46,257.78,1175.17z"/>
	<path d="M593.35,1258.15l-73.65-185.83h-21.31l-92.12,232.42h30.98c9.66-25.39,69.12-180.36,69.74-181.96l2.4-6.26l71.78,188.23
		h30.64L593.35,1258.15z"/>
</g>
</svg>
