<?xml version="1.0" encoding="utf-8"?>
<!-- Generator: Adobe Illustrator 16.0.0, SVG Export Plug-In . SVG Version: 6.00 Build 0)  -->
<!DOCTYPE svg PUBLIC "-//W3C//DTD SVG 1.1//EN" "http://www.w3.org/Graphics/SVG/1.1/DTD/svg11.dtd">
<svg version="1.1" id="Layer_1" xmlns="http://www.w3.org/2000/svg" xmlns:xlink="http://www.w3.org/1999/xlink" x="0px" y="0px"
	 width="1000px" height="1000px" viewBox="0 0 1000 1000" enable-background="new 0 0 1000 1000" xml:space="preserve">
<g id="Layer_7">
	<g id="Layer_8">
		<g>
			<polygon fill="#FFFFFF" points="714.68,443.26 714.68,424.113 622.947,424.113 622.947,576.833 714.906,576.833 714.906,557.687 
				642.313,557.687 642.313,443.26 			"/>
			<rect x="659.786" y="490.68" fill="#FFFFFF" width="53.327" height="19.367"/>
			<polygon fill="#FFFFFF" points="885.546,576.833 885.546,423.894 866.633,423.894 866.633,537.78 787.853,423.88 
				773.039,423.693 773.039,576.833 792.187,576.833 792.187,463.833 870.286,576.833 			"/>
			<path fill="#FFFFFF" d="M524.9,518.113c23.7-4.146,39.014-22.247,39.014-46.113c0-23.167-15.4-48.1-49.22-48.1h-55.247V576.84
				h18.92V443.267h36.333c19.747,0,30.073,14.453,30.073,28.733c0,13.946-9.413,28.96-30.073,28.96h-24.646v8.394l56.054,67.479
				H570.9l-48.913-58.206L524.9,518.113z"/>
			<path fill="#FFFFFF" d="M224.447,522.366c-5.553-23.02-29.7-29.06-52.593-31.92c-15.907-1.479-35.767-3.333-37.007-21.232
				c-0.507-6.107,0.927-11.541,4.153-15.688c5.873-7.553,16.973-12.227,29.68-12.5c13.907-0.227,29.313,5.834,33.293,19.827
				l19.034-0.76c-4.947-27.827-30.46-37.761-51.174-37.761c-18.82,0-36.446,7.707-46,20.107c-6.187,8.04-9,17.826-8.16,28.313h0.021
				c2.34,31.074,29.033,36.354,53.859,38.86c14.634,1.46,32.847,3.287,35.894,16.733c0.474,2.127,0.714,4.054,0.714,5.74
				c0,17.007-18.7,27.173-36.78,27.173c-15.653,0-33.134-7.986-35.32-22.819l-0.113,0.006l-0.113-1.727l-19.387,0.38l0.134,2.48
				c2.739,26.34,30.166,40.6,54.58,40.6c27.706,0,56.366-17.159,56.366-45.866C225.527,529.427,225.133,525.807,224.447,522.366z"/>
		</g>
	</g>
	<g>
		<polygon fill="#FFFFFF" points="380.846,559.533 387.447,576.833 407.873,576.833 401.02,559.533 		"/>
		<path fill="#FFFFFF" d="M395.567,545.773L346.466,421.88H332.26l-61.413,154.947H291.5c6.439-16.927,46.079-120.24,46.493-121.307
			l1.6-4.174l36.014,94.42h19.96V545.773z"/>
	</g>
</g>
<g id="Guides">
</g>
</svg>
